#Comment line ignore any data following # character 
#Hierarchical Translation and Rotation (.htr) file 
[Header]	
#Header keywords are followed by a single value 
FileType HTR		#Single word string
DataType HTRS		#Translation followed by rotation and scale data
FileVersion 1		#integer
NumSegments 84		#integer
NumFrames 2		#integer
DataFrameRate 30		#integer, data frame rate in this file
EulerRotationOrder ZYX
CalibrationUnits mm
RotationUnits Degrees
GlobalAxisofGravity Y
BoneLengthAxis Y
ScaleFactor 1.00
[SegmentNames&Hierarchy]
#CHILD	PARENT
MASTER GLOBAL
root MASTER
chest root
L_mid_tent01 root
R_mid_tent01 root
spine01 root
Bip01_Neck chest
L_humerus chest
R_humerus chest
weapon_bone chest
Bip01_Head Bip01_Neck
eye_left_bone Bip01_Head
eye_right_bone Bip01_Head
L_forearm L_humerus
L_front_hand L_forearm
L_weapon_bone L_forearm
L_front_hand01_01 L_front_hand
L_front_hand02_01 L_front_hand
L_front_hand03_01 L_front_hand
L_front_hand01_02 L_front_hand01_01
L_front_hand02_02 L_front_hand02_01
L_front_hand03_02 L_front_hand03_01
R_forearm R_humerus
R_front_hand R_forearm
R_weapon_bone R_forearm
R_front_hand01_01 R_front_hand
R_front_hand02_01 R_front_hand
R_front_hand03_01 R_front_hand
R_front_hand01_02 R_front_hand01_01
R_front_hand02_02 R_front_hand02_01
R_front_hand03_02 R_front_hand03_01
null_rope01_connect L_mid_tent01
Rope1_Seg01 null_rope01_connect
Rope1_Seg02 Rope1_Seg01
Rope1_Seg03 Rope1_Seg02
Rope1_Seg04 Rope1_Seg03
Rope1_Seg05 Rope1_Seg04
Rope1_Seg06 Rope1_Seg05
Rope1_Seg07 Rope1_Seg06
Rope1_Seg09 Rope1_Seg07
L_mid_hand01 Rope1_Seg09
L_mid_hand02 Rope1_Seg09
L_mid_hand03 Rope1_Seg09
null_rope02_connect R_mid_tent01
Rope2_Seg01 null_rope02_connect
Rope2_Seg02 Rope2_Seg01
Rope2_Seg03 Rope2_Seg02
Rope2_Seg04 Rope2_Seg03
Rope2_Seg05 Rope2_Seg04
Rope2_Seg06 Rope2_Seg05
Rope2_Seg07 Rope2_Seg06
Rope2_Seg09 Rope2_Seg07
R_mid_hand01 Rope2_Seg09
R_mid_hand02 Rope2_Seg09
R_mid_hand03 Rope2_Seg09
spine02 spine01
spine03 spine02
pelvis spine03
null_rope03_connect pelvis
null_rope04_connect pelvis
Rope3_Seg01 null_rope03_connect
Rope3_Seg02 Rope3_Seg01
Rope3_Seg03 Rope3_Seg02
Rope3_Seg04 Rope3_Seg03
Rope3_Seg05 Rope3_Seg04
Rope3_Seg06 Rope3_Seg05
Rope3_Seg07 Rope3_Seg06
Rope3_Seg08 Rope3_Seg07
Rope3_Seg09 Rope3_Seg08
R_rear_hand01 Rope3_Seg09
R_rear_hand02 Rope3_Seg09
R_rear_hand03 Rope3_Seg09
Rope4_Seg01 null_rope04_connect
Rope4_Seg02 Rope4_Seg01
Rope4_Seg03 Rope4_Seg02
Rope4_Seg04 Rope4_Seg03
Rope4_Seg05 Rope4_Seg04
Rope4_Seg06 Rope4_Seg05
Rope4_Seg07 Rope4_Seg06
Rope4_Seg08 Rope4_Seg07
Rope4_Seg09 Rope4_Seg08
L_rear_hand01 Rope4_Seg09
L_rear_hand02 Rope4_Seg09
L_rear_hand03 Rope4_Seg09
[BasePosition]
#SegmentName Tx, Ty, Tz, Rx, Ry, Rz, BoneLength
MASTER 0.000000 0.000000 0.000000 -90.000000 0.000000 0.000000 10.000000 
root 0.000000 0.000000 0.000000 0.000000 0.000000 0.000000 10.000000 
chest 0.000000 0.000000 0.000000 0.000000 0.000000 0.000000 10.000000 
L_mid_tent01 0.000000 0.000000 0.000000 0.000000 0.000000 0.000000 10.000000 
R_mid_tent01 0.000000 0.000000 0.000000 0.000000 0.000000 0.000000 10.000000 
spine01 0.000000 0.000000 0.000000 0.000000 0.000000 0.000000 10.000000 
Bip01_Neck 0.000000 0.000000 0.000000 0.000000 0.000000 0.000000 10.000000 
L_humerus 0.000000 0.000000 0.000000 0.000000 0.000000 0.000000 10.000000 
R_humerus 0.000000 0.000000 0.000000 0.000000 0.000000 0.000000 10.000000 
weapon_bone 0.000000 0.000000 0.000000 0.000000 0.000000 0.000000 10.000000 
Bip01_Head 0.000000 0.000000 0.000000 0.000000 0.000000 0.000000 10.000000 
eye_left_bone 0.000000 0.000000 0.000000 0.000000 0.000000 0.000000 10.000000 
eye_right_bone 0.000000 0.000000 0.000000 0.000000 0.000000 0.000000 10.000000 
L_forearm 0.000000 0.000000 0.000000 0.000000 0.000000 0.000000 10.000000 
L_front_hand 0.000000 0.000000 0.000000 0.000000 0.000000 0.000000 10.000000 
L_weapon_bone 0.000000 0.000000 0.000000 0.000000 0.000000 0.000000 10.000000 
L_front_hand01_01 0.000000 0.000000 0.000000 0.000000 0.000000 0.000000 10.000000 
L_front_hand02_01 0.000000 0.000000 0.000000 0.000000 0.000000 0.000000 10.000000 
L_front_hand03_01 0.000000 0.000000 0.000000 0.000000 0.000000 0.000000 10.000000 
L_front_hand01_02 0.000000 0.000000 0.000000 0.000000 0.000000 0.000000 10.000000 
L_front_hand02_02 0.000000 0.000000 0.000000 0.000000 0.000000 0.000000 10.000000 
L_front_hand03_02 0.000000 0.000000 0.000000 0.000000 0.000000 0.000000 10.000000 
R_forearm 0.000000 0.000000 0.000000 0.000000 0.000000 0.000000 10.000000 
R_front_hand 0.000000 0.000000 0.000000 0.000000 0.000000 0.000000 10.000000 
R_weapon_bone 0.000000 0.000000 0.000000 0.000000 0.000000 0.000000 10.000000 
R_front_hand01_01 0.000000 0.000000 0.000000 0.000000 0.000000 0.000000 10.000000 
R_front_hand02_01 0.000000 0.000000 0.000000 0.000000 0.000000 0.000000 10.000000 
R_front_hand03_01 0.000000 0.000000 0.000000 0.000000 0.000000 0.000000 10.000000 
R_front_hand01_02 0.000000 0.000000 0.000000 0.000000 0.000000 0.000000 10.000000 
R_front_hand02_02 0.000000 0.000000 0.000000 0.000000 0.000000 0.000000 10.000000 
R_front_hand03_02 0.000000 0.000000 0.000000 0.000000 0.000000 0.000000 10.000000 
null_rope01_connect 0.000000 0.000000 0.000000 0.000000 0.000000 0.000000 10.000000 
Rope1_Seg01 0.000000 0.000000 0.000000 0.000000 0.000000 0.000000 10.000000 
Rope1_Seg02 0.000000 0.000000 0.000000 0.000000 0.000000 0.000000 10.000000 
Rope1_Seg03 0.000000 0.000000 0.000000 0.000000 0.000000 0.000000 10.000000 
Rope1_Seg04 0.000000 0.000000 0.000000 0.000000 0.000000 0.000000 10.000000 
Rope1_Seg05 0.000000 0.000000 0.000000 0.000000 0.000000 0.000000 10.000000 
Rope1_Seg06 0.000000 0.000000 0.000000 0.000000 0.000000 0.000000 10.000000 
Rope1_Seg07 0.000000 0.000000 0.000000 0.000000 0.000000 0.000000 10.000000 
Rope1_Seg09 0.000000 0.000000 0.000000 0.000000 0.000000 0.000000 10.000000 
L_mid_hand01 0.000000 0.000000 0.000000 0.000000 0.000000 0.000000 10.000000 
L_mid_hand02 0.000000 0.000000 0.000000 0.000000 0.000000 0.000000 10.000000 
L_mid_hand03 0.000000 0.000000 0.000000 0.000000 0.000000 0.000000 10.000000 
null_rope02_connect 0.000000 0.000000 0.000000 0.000000 0.000000 0.000000 10.000000 
Rope2_Seg01 0.000000 0.000000 0.000000 0.000000 0.000000 0.000000 10.000000 
Rope2_Seg02 0.000000 0.000000 0.000000 0.000000 0.000000 0.000000 10.000000 
Rope2_Seg03 0.000000 0.000000 0.000000 0.000000 0.000000 0.000000 10.000000 
Rope2_Seg04 0.000000 0.000000 0.000000 0.000000 0.000000 0.000000 10.000000 
Rope2_Seg05 0.000000 0.000000 0.000000 0.000000 0.000000 0.000000 10.000000 
Rope2_Seg06 0.000000 0.000000 0.000000 0.000000 0.000000 0.000000 10.000000 
Rope2_Seg07 0.000000 0.000000 0.000000 0.000000 0.000000 0.000000 10.000000 
Rope2_Seg09 0.000000 0.000000 0.000000 0.000000 0.000000 0.000000 10.000000 
R_mid_hand01 0.000000 0.000000 0.000000 0.000000 0.000000 0.000000 10.000000 
R_mid_hand02 0.000000 0.000000 0.000000 0.000000 0.000000 0.000000 10.000000 
R_mid_hand03 0.000000 0.000000 0.000000 0.000000 0.000000 0.000000 10.000000 
spine02 0.000000 0.000000 0.000000 0.000000 0.000000 0.000000 10.000000 
spine03 0.000000 0.000000 0.000000 0.000000 0.000000 0.000000 10.000000 
pelvis 0.000000 0.000000 0.000000 0.000000 0.000000 0.000000 10.000000 
null_rope03_connect 0.000000 0.000000 0.000000 0.000000 0.000000 0.000000 10.000000 
null_rope04_connect 0.000000 0.000000 0.000000 0.000000 0.000000 0.000000 10.000000 
Rope3_Seg01 0.000000 0.000000 0.000000 0.000000 0.000000 0.000000 10.000000 
Rope3_Seg02 0.000000 0.000000 0.000000 0.000000 0.000000 0.000000 10.000000 
Rope3_Seg03 0.000000 0.000000 0.000000 0.000000 0.000000 0.000000 10.000000 
Rope3_Seg04 0.000000 0.000000 0.000000 0.000000 0.000000 0.000000 10.000000 
Rope3_Seg05 0.000000 0.000000 0.000000 0.000000 0.000000 0.000000 10.000000 
Rope3_Seg06 0.000000 0.000000 0.000000 0.000000 0.000000 0.000000 10.000000 
Rope3_Seg07 0.000000 0.000000 0.000000 0.000000 0.000000 0.000000 10.000000 
Rope3_Seg08 0.000000 0.000000 0.000000 0.000000 0.000000 0.000000 10.000000 
Rope3_Seg09 0.000000 0.000000 0.000000 0.000000 0.000000 0.000000 10.000000 
R_rear_hand01 0.000000 0.000000 0.000000 0.000000 0.000000 0.000000 10.000000 
R_rear_hand02 0.000000 0.000000 0.000000 0.000000 0.000000 0.000000 10.000000 
R_rear_hand03 0.000000 0.000000 0.000000 0.000000 0.000000 0.000000 10.000000 
Rope4_Seg01 0.000000 0.000000 0.000000 0.000000 0.000000 0.000000 10.000000 
Rope4_Seg02 0.000000 0.000000 0.000000 0.000000 0.000000 0.000000 10.000000 
Rope4_Seg03 0.000000 0.000000 0.000000 0.000000 0.000000 0.000000 10.000000 
Rope4_Seg04 0.000000 0.000000 0.000000 0.000000 0.000000 0.000000 10.000000 
Rope4_Seg05 0.000000 0.000000 0.000000 0.000000 0.000000 0.000000 10.000000 
Rope4_Seg06 0.000000 0.000000 0.000000 0.000000 0.000000 0.000000 10.000000 
Rope4_Seg07 0.000000 0.000000 0.000000 0.000000 0.000000 0.000000 10.000000 
Rope4_Seg08 0.000000 0.000000 0.000000 0.000000 0.000000 0.000000 10.000000 
Rope4_Seg09 0.000000 0.000000 0.000000 0.000000 0.000000 0.000000 10.000000 
L_rear_hand01 0.000000 0.000000 0.000000 0.000000 0.000000 0.000000 10.000000 
L_rear_hand02 0.000000 0.000000 0.000000 0.000000 0.000000 0.000000 10.000000 
L_rear_hand03 0.000000 0.000000 0.000000 0.000000 0.000000 0.000000 10.000000 
#Beginning of Data. Separated by tabs
#Fr	Tx	Ty	Tz	Rx	Ry	Rz	SF
[MASTER]
2 204.301025 -153.942429 0.000000 0.000002 -0.002347 -90.090889 255.806931
3 400.871216 -310.659424 0.000000 0.000007 -0.002347 -90.356148 507.155792
[root]
2 -62.822132 89.476906 1158.656128 -84.457123 -5.207489 -179.772095 1163.802734
3 -62.822132 86.020233 1154.048340 -82.796043 -5.894115 -179.739792 1158.953735
[chest]
2 -84.512650 -34.090519 0.000000 -1.228483 -0.158077 156.328735 91.129311
3 -84.512650 -34.090519 0.000000 -2.261196 0.498505 156.258102 91.129311
[L_mid_tent01]
2 23.228750 24.509907 -223.761200 -11.666813 14.392872 -5.812172 226.294907
3 23.228750 24.509907 -223.761200 -10.186612 13.405928 -4.703610 226.294907
[R_mid_tent01]
2 23.228794 24.509907 226.238495 -159.720947 -8.674687 -23.003958 228.744751
3 23.228794 24.509907 226.238495 -159.324417 -13.985921 -25.026209 228.744751
[spine01]
2 -0.361383 -0.195265 0.000000 0.001815 0.001488 11.320961 0.410763
3 -0.361383 -0.195265 0.000000 0.001815 0.001488 11.320962 0.410763
[Bip01_Neck]
2 165.484543 71.581718 0.000119 175.896118 1.177290 24.871181 180.302734
3 165.484543 71.581718 0.000119 175.896118 1.177290 24.871183 180.302734
[L_humerus]
2 -13.983130 -135.272980 -120.471481 62.255981 80.081650 163.182693 181.680161
3 -13.983130 -135.272980 -120.471481 128.077591 74.321869 -133.429977 181.680161
[R_humerus]
2 -13.983309 -135.273102 125.287651 -141.269760 -84.266396 -120.255890 184.909012
3 -13.983309 -135.273102 125.287651 -158.236542 -69.555214 -104.670288 184.909012
[weapon_bone]
2 235.964890 -300.705902 0.000000 0.000000 -89.951546 -128.212341 382.234833
3 235.964890 -300.705902 0.000000 0.000000 -89.951546 -128.212341 382.234833
[Bip01_Head]
2 201.313812 211.516815 15.929725 -0.444643 11.054968 -65.812988 292.438660
3 201.313812 211.516815 15.929725 -3.695460 10.616805 -67.371452 292.438660
[eye_left_bone]
2 -24.626970 125.451866 -64.772606 0.000000 -90.000000 -99.840431 143.318359
3 -24.626970 125.451866 -64.772606 0.000000 -90.000000 -99.840431 143.318359
[eye_right_bone]
2 -24.626970 125.451866 64.327362 0.000000 -89.965736 80.156380 143.117676
3 -24.626970 125.451866 64.327362 0.000000 -89.972023 80.156380 143.117676
[L_forearm]
2 322.776093 0.000000 -0.000119 0.000357 -0.002320 -107.506004 322.776093
3 322.776093 0.000000 -0.000119 0.000357 -0.002320 -107.506004 322.776093
[L_front_hand]
2 241.149185 -0.042021 -3.300071 -179.431961 -2.195943 -5.942918 241.171753
3 241.149185 -0.042021 -3.300071 -179.431961 -2.195943 -5.942918 241.171753
[L_weapon_bone]
2 156.183838 0.000000 0.000000 0.000014 0.000007 0.000001 156.183838
3 156.183838 0.000000 0.000000 0.000014 0.000007 0.000001 156.183838
[L_front_hand01_01]
2 86.095154 20.947098 -0.655860 0.139491 -0.584553 24.181789 88.609184
3 86.095154 20.947098 -0.655860 0.139491 -0.584553 24.181787 88.609184
[L_front_hand02_01]
2 86.935165 -11.437475 24.513514 119.190460 -21.905661 -12.119138 91.046425
3 86.935165 -11.437475 24.513514 119.190460 -21.905655 -12.119137 91.046425
[L_front_hand03_01]
2 86.637497 -14.123976 -20.424902 -120.437630 20.554031 -14.327168 90.126129
3 86.637497 -14.123976 -20.424902 -120.437630 20.554031 -14.327168 90.126129
[L_front_hand01_02]
2 71.020905 -0.000179 0.000030 0.000334 -0.002323 -106.379684 71.020905
3 71.020905 -0.000179 0.000030 0.000334 -0.002323 -106.379684 71.020905
[L_front_hand02_02]
2 71.020927 -0.000119 0.000060 0.000334 -0.002323 -106.379684 71.020927
3 71.020927 -0.000119 0.000060 0.000334 -0.002323 -106.379684 71.020927
[L_front_hand03_02]
2 71.020905 -0.000060 0.000060 0.000334 -0.002323 -106.379684 71.020905
3 71.020905 -0.000060 0.000060 0.000334 -0.002323 -106.379684 71.020905
[R_forearm]
2 322.776428 -0.000060 0.000030 0.196737 0.083011 -114.368637 322.776428
3 322.776428 -0.000060 0.000030 0.196737 0.083011 -114.368637 322.776428
[R_front_hand]
2 238.847015 -0.006795 2.210259 -0.341870 1.692705 -0.151780 238.857239
3 238.847015 -0.006795 2.210259 -0.341870 1.692706 -0.151780 238.857239
[R_weapon_bone]
2 155.664093 0.002503 -0.000030 0.003487 0.001180 -90.988930 155.664078
3 155.664093 0.002503 -0.000030 0.003487 0.001180 -90.988930 155.664078
[R_front_hand01_01]
2 87.624611 14.231146 22.918642 -119.218056 -22.033409 12.303373 91.683487
3 87.624611 14.231146 22.918642 -119.218056 -22.033409 12.303375 91.683487
[R_front_hand02_01]
2 89.356956 14.367283 -19.491137 120.545517 20.947186 14.823009 92.579636
3 89.356956 14.367283 -19.491137 120.545532 20.947184 14.823009 92.579636
[R_front_hand03_01]
2 87.286232 -22.307278 -0.143439 -0.231628 -0.392922 -24.567768 90.091743
3 87.286232 -22.307278 -0.143439 -0.231628 -0.392922 -24.567768 90.091743
[R_front_hand01_02]
2 71.020905 0.000060 0.000119 0.002323 -0.000334 106.381714 71.020905
3 71.020905 0.000060 0.000119 0.002323 -0.000334 106.381714 71.020905
[R_front_hand02_02]
2 71.020844 -0.000030 -0.000119 0.002323 -0.000334 106.381714 71.020836
3 71.020844 -0.000030 -0.000119 0.002323 -0.000334 106.381714 71.020836
[R_front_hand03_02]
2 71.020905 0.000000 0.000030 0.002323 -0.000334 106.381714 71.020905
3 71.020905 0.000000 0.000030 0.002323 -0.000334 106.381714 71.020905
[null_rope01_connect]
2 328.732483 0.000000 -0.000238 102.654190 74.127388 21.453701 328.732483
3 328.732483 0.000000 -0.000238 92.598297 75.744072 11.111752 328.732483
[Rope1_Seg01]
2 0.000024 0.000000 -0.000074 19.781168 -19.037460 83.243950 0.000077
3 0.000028 0.000000 -0.000071 -1.679453 -13.685581 106.045059 0.000077
[Rope1_Seg02]
2 139.999863 -0.000179 0.000000 0.645963 0.789382 -1.972342 139.999863
3 139.999863 -0.000179 0.000000 3.550941 0.227704 -7.919466 139.999863
[Rope1_Seg03]
2 139.999924 0.000060 -0.000060 4.264208 -0.142240 -5.979923 139.999924
3 139.999924 0.000060 -0.000060 6.787479 -0.329051 -10.754853 139.999924
[Rope1_Seg04]
2 139.999924 -0.000060 -0.000119 9.251229 -1.406299 -9.282155 139.999924
3 139.999924 -0.000060 -0.000119 36.838699 -3.593025 -30.417677 139.999924
[Rope1_Seg05]
2 139.999832 0.000119 -0.000060 -20.955437 12.385823 23.498394 139.999832
3 139.999832 0.000119 -0.000060 -13.966095 6.324681 8.042507 139.999832
[Rope1_Seg06]
2 139.999954 0.000119 -0.000060 -6.380589 1.078799 14.674421 139.999954
3 139.999954 0.000119 -0.000060 -23.936502 15.129209 32.278248 139.999954
[Rope1_Seg07]
2 139.999985 0.000060 0.000000 -1.397757 -0.091736 4.514748 139.999985
3 139.999985 0.000060 0.000000 -3.288548 -0.289839 9.540418 139.999985
[Rope1_Seg09]
2 121.602913 0.000119 -0.000089 -89.793175 -1.359789 0.847147 121.602913
3 121.602913 0.000119 -0.000089 -89.793175 -1.359789 0.847147 121.602913
[L_mid_hand01]
2 103.859421 1.038730 8.195221 106.855484 -31.239275 -9.461397 104.187431
3 103.859421 1.038730 8.195221 106.855484 -31.239275 -9.461397 104.187431
[L_mid_hand02]
2 105.572853 -4.139662 -10.864139 -142.331345 25.752670 -28.774628 106.211075
3 105.572853 -4.139662 -10.864139 -142.331345 25.752670 -28.774628 106.211075
[L_mid_hand03]
2 104.641464 17.579376 -3.913581 -16.122810 9.734291 34.223598 106.179977
3 104.641464 17.579376 -3.913581 -16.122810 9.734291 34.223598 106.179977
[null_rope02_connect]
2 328.732849 0.000179 -0.000119 137.553925 -63.737278 105.045509 328.732849
3 328.732849 0.000179 -0.000119 127.729126 -60.831291 112.547455 328.732849
[Rope2_Seg01]
2 -0.000106 -0.000148 -0.000148 62.305424 -29.132307 103.956520 0.000234
3 -0.000108 -0.000142 -0.000142 46.808525 -22.610109 120.915497 0.000229
[Rope2_Seg02]
2 139.999741 -0.000060 -0.000119 3.082128 0.310884 -5.231201 139.999756
3 139.999741 -0.000060 -0.000119 4.365146 -1.672525 -3.888992 139.999756
[Rope2_Seg03]
2 140.000107 0.000030 0.000000 4.300314 0.036043 -6.454117 140.000107
3 140.000107 0.000030 0.000000 5.850856 -2.648693 -5.078802 140.000107
[Rope2_Seg04]
2 139.999802 0.000000 -0.000060 11.660864 -6.510635 -13.532638 139.999802
3 139.999802 0.000000 -0.000060 9.238330 -5.808896 -7.825961 139.999802
[Rope2_Seg05]
2 139.999985 -0.000060 0.000119 7.396997 -2.775955 -9.722023 139.999985
3 139.999985 -0.000060 0.000119 18.096544 -21.169924 -17.046619 139.999985
[Rope2_Seg06]
2 139.999893 -0.000030 -0.000119 -17.704500 25.080702 6.018624 139.999893
3 139.999893 -0.000030 -0.000119 -1.107798 9.410006 -2.804327 139.999893
[Rope2_Seg07]
2 139.999893 0.000060 -0.000060 -22.389391 13.126927 9.296473 139.999893
3 139.999893 0.000060 -0.000060 -28.113914 34.496822 6.335652 139.999893
[Rope2_Seg09]
2 121.338966 0.000089 -0.000060 33.793236 -1.359788 -0.847141 121.338966
3 121.338966 0.000089 -0.000060 33.793236 -1.359788 -0.847141 121.338966
[R_mid_hand01]
2 104.680779 11.144459 -10.335981 -41.523792 25.424656 28.595957 105.778534
3 104.680779 11.144459 -10.335981 -41.523792 25.424656 28.595957 105.778534
[R_mid_hand02]
2 104.070427 2.443552 8.231699 72.847389 -32.746803 10.013901 104.424065
3 104.070427 2.443552 8.231699 72.847389 -32.746803 10.013901 104.424065
[R_mid_hand03]
2 106.028137 -11.221827 -5.996406 -167.901306 10.259192 -37.009720 106.788818
3 106.028137 -11.221827 -5.996406 -167.901306 10.259192 -37.009720 106.788818
[spine02]
2 129.756927 0.001550 0.000119 0.001147 -1.797837 -7.854275 129.756927
3 129.756927 0.001550 0.000119 0.001147 -1.797837 -7.854274 129.756927
[spine03]
2 79.115631 0.000000 -0.000119 1.459971 -2.848092 23.765963 79.115631
3 79.115631 0.000000 -0.000119 1.459971 -2.848092 23.765961 79.115631
[pelvis]
2 169.435242 0.051022 0.000000 -0.000005 0.000003 -4.322055 169.435257
3 169.435242 0.051022 0.000000 -0.000005 0.000003 -4.322055 169.435257
[null_rope03_connect]
2 -1.257226 -2.466202 137.391083 -30.392118 80.824356 -138.001831 137.418976
3 -1.257226 -2.466202 137.391083 -26.206631 79.396347 -133.053802 137.418976
[null_rope04_connect]
2 -1.259640 -2.480268 -137.844437 -30.392118 80.824356 -138.001831 137.872513
3 -1.259640 -2.480268 -137.844437 -26.206631 79.396347 -133.053802 137.872513
[Rope3_Seg01]
2 0.000024 0.000000 -0.000074 -128.752014 -1.431876 79.159286 0.000077
3 0.000028 0.000000 -0.000071 -129.307343 0.960800 75.983589 0.000077
[Rope3_Seg02]
2 139.999924 -0.000119 0.000060 -0.889062 -5.327454 -2.462476 139.999924
3 139.999924 -0.000119 0.000060 -0.558902 -3.836742 -2.770858 139.999924
[Rope3_Seg03]
2 139.999924 -0.000119 0.000119 -0.647206 -6.406504 -3.103027 139.999924
3 139.999924 -0.000119 0.000119 -0.454208 -4.624642 -3.425545 139.999924
[Rope3_Seg04]
2 139.999924 0.000119 0.000000 -0.199785 -8.541977 -4.477839 139.999924
3 139.999924 0.000119 0.000000 -0.237431 -5.842085 -4.830847 139.999924
[Rope3_Seg05]
2 139.999924 -0.000238 0.000060 1.308938 -12.017313 -6.873878 139.999924
3 139.999924 -0.000238 0.000060 0.503416 -7.727951 -7.418422 139.999924
[Rope3_Seg06]
2 139.999893 -0.000119 -0.000060 1.069751 -4.324055 -1.414701 139.999893
3 139.999893 -0.000119 -0.000060 0.802614 -5.669206 -2.172458 139.999893
[Rope3_Seg07]
2 139.999771 0.000060 -0.000119 0.437794 4.208138 4.185776 139.999771
3 139.999771 0.000060 -0.000119 0.863928 -2.512466 3.332319 139.999771
[Rope3_Seg08]
2 139.999985 -0.000060 0.000000 0.551287 2.052562 2.509738 139.999985
3 139.999985 -0.000060 0.000000 0.791076 -2.563967 1.200954 139.999985
[Rope3_Seg09]
2 90.185997 -0.000179 -0.000060 89.793228 -1.359877 -0.847183 90.185997
3 90.185997 -0.000179 -0.000060 89.793228 -1.359877 -0.847183 90.185997
[R_rear_hand01]
2 103.366196 -6.073594 -10.757982 -161.551193 16.666374 -30.088671 104.101845
3 103.366196 -6.073594 -10.757982 -161.551193 16.666374 -30.088671 104.101845
[R_rear_hand02]
2 100.509819 12.039542 -7.992327 -34.280552 19.289745 28.875523 101.543350
3 100.509819 12.039542 -7.992327 -34.280552 19.289745 28.875523 101.543350
[R_rear_hand03]
2 101.539970 5.215704 5.435467 83.366440 -30.933914 7.284830 101.819031
3 101.539970 5.215704 5.435467 83.366440 -30.933914 7.284830 101.819031
[Rope4_Seg01]
2 0.000019 0.000053 -0.000153 55.344452 -18.362490 46.503574 0.000163
3 0.000018 0.000031 -0.000153 51.683735 -12.935028 47.382599 0.000157
[Rope4_Seg02]
2 139.999985 0.000060 0.000119 1.092336 21.320438 9.341375 139.999985
3 139.999985 0.000060 0.000119 2.500436 17.159554 11.361994 139.999985
[Rope4_Seg03]
2 139.999924 0.000000 -0.000238 1.546259 19.176804 8.828524 139.999924
3 139.999924 0.000000 -0.000238 1.213772 13.327441 8.861211 139.999924
[Rope4_Seg04]
2 139.999985 0.000000 0.000119 1.145541 15.342812 8.107393 139.999985
3 139.999985 0.000000 0.000119 0.252354 9.268721 7.559756 139.999985
[Rope4_Seg05]
2 139.999802 -0.000060 -0.000119 0.618730 5.320741 1.877247 139.999802
3 139.999802 -0.000060 -0.000119 0.245347 4.529462 2.030893 139.999802
[Rope4_Seg06]
2 139.999924 0.000000 0.000060 1.254431 0.574375 -1.708394 139.999924
3 139.999924 0.000000 0.000060 1.113452 3.066974 -1.348972 139.999924
[Rope4_Seg07]
2 139.999802 0.000000 0.000000 2.225264 -3.279091 -5.512548 139.999802
3 139.999802 0.000000 0.000000 2.292690 3.153737 -4.370224 139.999802
[Rope4_Seg08]
2 139.999924 0.000000 0.000119 -0.103294 -1.204084 -3.667783 139.999924
3 139.999924 0.000000 0.000119 0.157916 3.423677 -2.388580 139.999924
[Rope4_Seg09]
2 90.185791 0.000060 0.000060 -135.617828 2.228885 0.850567 90.185791
3 90.185791 0.000060 0.000060 -135.617828 2.228885 0.850567 90.185791
[L_rear_hand01]
2 101.696655 -8.392275 -7.654577 -34.454281 -18.946800 151.655121 102.329041
3 101.696655 -8.392275 -7.654577 -34.454281 -18.946800 151.655121 102.329041
[L_rear_hand02]
2 102.726799 -1.568258 5.773216 83.407906 30.330435 172.796509 102.900848
3 102.726799 -1.568258 5.773216 83.407906 30.330435 172.796509 102.900848
[L_rear_hand03]
2 104.552910 9.721220 -10.420293 -161.379868 -16.473232 -150.512238 105.519653
3 104.552910 9.721220 -10.420293 -161.379868 -16.473232 -150.512238 105.519653
